<svg width="328" height="582" viewBox="0 0 328 582" fill="none" xmlns="http://www.w3.org/2000/svg">
<rect y="6" width="328" height="544" rx="16" fill="white"/>
<path d="M0 44.4C0 30.9587 0 24.2381 2.61584 19.1042C4.9168 14.5883 8.58834 10.9168 13.1042 8.61584C18.2381 6 24.9587 6 38.4 6H289.6C303.041 6 309.762 6 314.896 8.61584C319.412 10.9168 323.083 14.5883 325.384 19.1042C328 24.2381 328 30.9587 328 44.4V54H0V44.4Z" fill="white"/>
<rect x="12" y="20" width="24" height="18" rx="2" fill="#D7D7D7"/>
<rect x="12" y="21.9013" width="24" height="16.0987" rx="2" fill="#EAEAEA"/>
<rect x="18" width="4" height="32" rx="2" fill="#4E4E4E"/>
<rect x="26" width="4" height="32" rx="2" fill="#4E4E4E"/>
<rect x="52" y="20" width="24" height="18" rx="2" fill="#D7D7D7"/>
<rect x="52" y="21.9013" width="24" height="16.0987" rx="2" fill="#EAEAEA"/>
<rect x="58" width="4" height="32" rx="2" fill="#4E4E4E"/>
<rect x="66" width="4" height="32" rx="2" fill="#4E4E4E"/>
<rect x="92" y="20" width="24" height="18" rx="2" fill="#D7D7D7"/>
<rect x="92" y="21.9013" width="24" height="16.0987" rx="2" fill="#EAEAEA"/>
<rect x="98" width="4" height="32" rx="2" fill="#4E4E4E"/>
<rect x="106" width="4" height="32" rx="2" fill="#4E4E4E"/>
<rect x="132" y="20" width="24" height="18" rx="2" fill="#D7D7D7"/>
<rect x="132" y="21.9013" width="24" height="16.0987" rx="2" fill="#EAEAEA"/>
<rect x="138" width="4" height="32" rx="2" fill="#4E4E4E"/>
<rect x="146" width="4" height="32" rx="2" fill="#4E4E4E"/>
<rect x="172" y="20" width="24" height="18" rx="2" fill="#D7D7D7"/>
<rect x="172" y="21.9013" width="24" height="16.0987" rx="2" fill="#EAEAEA"/>
<rect x="178" width="4" height="32" rx="2" fill="#4E4E4E"/>
<rect x="186" width="4" height="32" rx="2" fill="#4E4E4E"/>
<rect x="212" y="20" width="24" height="18" rx="2" fill="#D7D7D7"/>
<rect x="212" y="21.9013" width="24" height="16.0987" rx="2" fill="#EAEAEA"/>
<rect x="218" width="4" height="32" rx="2" fill="#4E4E4E"/>
<rect x="226" width="4" height="32" rx="2" fill="#4E4E4E"/>
<rect x="252" y="20" width="24" height="18" rx="2" fill="#D7D7D7"/>
<rect x="252" y="21.9013" width="24" height="16.0987" rx="2" fill="#EAEAEA"/>
<rect x="258" width="4" height="32" rx="2" fill="#4E4E4E"/>
<rect x="266" width="4" height="32" rx="2" fill="#4E4E4E"/>
<rect x="292" y="20" width="24" height="18" rx="2" fill="#D7D7D7"/>
<rect x="292" y="21.9013" width="24" height="16.0987" rx="2" fill="#EAEAEA"/>
<rect x="298" width="4" height="32" rx="2" fill="#4E4E4E"/>
<rect x="306" width="4" height="32" rx="2" fill="#4E4E4E"/>
<path d="M0 54H328V524.4C328 533.361 328 537.841 326.256 541.264C324.722 544.275 322.274 546.722 319.264 548.256C315.841 550 311.361 550 302.4 550H25.6C16.6392 550 12.1587 550 8.73615 548.256C5.72556 546.722 3.27787 544.275 1.7439 541.264C0 537.841 0 533.361 0 524.4V54Z" fill="white"/>
<path d="M300 562C300 568.628 294.627 574 288 574L40 574C33.3726 574 28 568.628 28 562L28 558L300 558L300 562Z" fill="url(#paint0_linear_2_1926)"/>
<path d="M306.5 554C306.5 560.628 301.127 566 294.5 566L33.5 566C26.8726 566 21.5 560.628 21.5 554L21.5 550L306.5 550L306.5 554Z" fill="url(#paint1_linear_2_1926)"/>
<path d="M314.5 550C314.5 554.418 310.918 558 306.5 558L21.5 558C17.0817 558 13.5 554.418 13.5 550L314.5 550Z" fill="url(#paint2_linear_2_1926)"/>
<defs>
<linearGradient id="paint0_linear_2_1926" x1="284.801" y1="559.385" x2="47.204" y2="655.6" gradientUnits="userSpaceOnUse">
<stop stop-color="white" stop-opacity="0.6"/>
<stop offset="1" stop-color="white" stop-opacity="0.2"/>
</linearGradient>
<linearGradient id="paint1_linear_2_1926" x1="290.575" y1="551.385" x2="45.0079" y2="655.58" gradientUnits="userSpaceOnUse">
<stop stop-color="white" stop-opacity="0.6"/>
<stop offset="1" stop-color="white" stop-opacity="0.2"/>
</linearGradient>
<linearGradient id="paint2_linear_2_1926" x1="297.681" y1="550.692" x2="127.964" y2="702.802" gradientUnits="userSpaceOnUse">
<stop stop-color="white" stop-opacity="0.6"/>
<stop offset="1" stop-color="white" stop-opacity="0.2"/>
</linearGradient>
</defs>
</svg>
