<svg width="302" height="32" viewBox="0 0 302 32" fill="none" xmlns="http://www.w3.org/2000/svg">
<path d="M287 12.0001C287 18.6275 281.627 24.0001 275 24.0001L27 24.0001C20.3726 24.0001 15 18.6275 15 12.0001L15 8.00012L287 8.00015L287 12.0001Z" fill="url(#paint0_linear_2_1949)"/>
<path d="M293.5 4.00012C293.5 10.6275 288.127 16.0001 281.5 16.0001L20.5 16.0001C13.8726 16.0001 8.5 10.6275 8.5 4.00009L8.5 0.000122005L293.5 0.00014782L293.5 4.00012Z" fill="url(#paint1_linear_2_1949)"/>
<path d="M301.5 0.00014925C301.5 4.41841 297.918 8.00012 293.5 8.00012L8.49997 8.0001C4.0817 8.0001 0.5 4.41838 0.500001 0.000121987L301.5 0.00014925Z" fill="url(#paint2_linear_2_1949)"/>
<defs>
<linearGradient id="paint0_linear_2_1949" x1="271.801" y1="9.38459" x2="34.204" y2="105.6" gradientUnits="userSpaceOnUse">
<stop stop-color="white" stop-opacity="0.6"/>
<stop offset="1" stop-color="white" stop-opacity="0.2"/>
</linearGradient>
<linearGradient id="paint1_linear_2_1949" x1="277.575" y1="1.38459" x2="32.0079" y2="105.58" gradientUnits="userSpaceOnUse">
<stop stop-color="white" stop-opacity="0.6"/>
<stop offset="1" stop-color="white" stop-opacity="0.2"/>
</linearGradient>
<linearGradient id="paint2_linear_2_1949" x1="284.681" y1="0.692368" x2="114.964" y2="152.802" gradientUnits="userSpaceOnUse">
<stop stop-color="white" stop-opacity="0.6"/>
<stop offset="1" stop-color="white" stop-opacity="0.2"/>
</linearGradient>
</defs>
</svg>
