<svg width="328" height="54" viewBox="0 0 328 54" fill="none" xmlns="http://www.w3.org/2000/svg">
<path d="M0 44.4C0 30.9587 0 24.2381 2.61584 19.1042C4.9168 14.5883 8.58834 10.9168 13.1042 8.61584C18.2381 6 24.9587 6 38.4 6H289.6C303.041 6 309.762 6 314.896 8.61584C319.412 10.9168 323.083 14.5883 325.384 19.1042C328 24.2381 328 30.9587 328 44.4V54H0V44.4Z" fill="white"/>
<rect x="12" y="20" width="24" height="18" rx="2" fill="#D7D7D7"/>
<rect x="12" y="21.9013" width="24" height="16.0987" rx="2" fill="#EAEAEA"/>
<rect x="18" width="4" height="32" rx="2" fill="#4E4E4E"/>
<rect x="26" width="4" height="32" rx="2" fill="#4E4E4E"/>
<rect x="52" y="20" width="24" height="18" rx="2" fill="#D7D7D7"/>
<rect x="52" y="21.9013" width="24" height="16.0987" rx="2" fill="#EAEAEA"/>
<rect x="58" width="4" height="32" rx="2" fill="#4E4E4E"/>
<rect x="66" width="4" height="32" rx="2" fill="#4E4E4E"/>
<rect x="92" y="20" width="24" height="18" rx="2" fill="#D7D7D7"/>
<rect x="92" y="21.9013" width="24" height="16.0987" rx="2" fill="#EAEAEA"/>
<rect x="98" width="4" height="32" rx="2" fill="#4E4E4E"/>
<rect x="106" width="4" height="32" rx="2" fill="#4E4E4E"/>
<rect x="132" y="20" width="24" height="18" rx="2" fill="#D7D7D7"/>
<rect x="132" y="21.9013" width="24" height="16.0987" rx="2" fill="#EAEAEA"/>
<rect x="138" width="4" height="32" rx="2" fill="#4E4E4E"/>
<rect x="146" width="4" height="32" rx="2" fill="#4E4E4E"/>
<rect x="172" y="20" width="24" height="18" rx="2" fill="#D7D7D7"/>
<rect x="172" y="21.9013" width="24" height="16.0987" rx="2" fill="#EAEAEA"/>
<rect x="178" width="4" height="32" rx="2" fill="#4E4E4E"/>
<rect x="186" width="4" height="32" rx="2" fill="#4E4E4E"/>
<rect x="212" y="20" width="24" height="18" rx="2" fill="#D7D7D7"/>
<rect x="212" y="21.9013" width="24" height="16.0987" rx="2" fill="#EAEAEA"/>
<rect x="218" width="4" height="32" rx="2" fill="#4E4E4E"/>
<rect x="226" width="4" height="32" rx="2" fill="#4E4E4E"/>
<rect x="252" y="20" width="24" height="18" rx="2" fill="#D7D7D7"/>
<rect x="252" y="21.9013" width="24" height="16.0987" rx="2" fill="#EAEAEA"/>
<rect x="258" width="4" height="32" rx="2" fill="#4E4E4E"/>
<rect x="266" width="4" height="32" rx="2" fill="#4E4E4E"/>
<rect x="292" y="20" width="24" height="18" rx="2" fill="#D7D7D7"/>
<rect x="292" y="21.9013" width="24" height="16.0987" rx="2" fill="#EAEAEA"/>
<rect x="298" width="4" height="32" rx="2" fill="#4E4E4E"/>
<rect x="306" width="4" height="32" rx="2" fill="#4E4E4E"/>
</svg>
